<svg width="384" height="383" viewBox="0 0 384 383" fill="none" xmlns="http://www.w3.org/2000/svg">
<path d="M202.87 380.9C183.3 377.63 169.26 364.46 156.88 352.84C150.25 346.62 143.98 340.74 137.28 336.52C122.14 326.99 108.64 323.37 95.5797 319.87C74.4697 314.22 52.6397 308.37 29.1497 278.82C5.49965 249.06 -3.37033 220.73 2.03967 192.21C7.33967 164.24 26.2197 140.06 42.0697 122.13C52.4097 110.42 59.6397 95.93 67.2797 80.59C73.9297 67.25 80.7997 53.46 90.1197 40.95C114.03 8.88001 137.31 -2.62999 167.96 2.49001C179.78 4.46001 191.93 8.71001 204.79 13.21C216.16 17.18 227.91 21.29 241.08 24.52C242.35 24.83 243.7 25.11 245.08 25.34C251.78 26.46 258.84 26.49 266.3 26.53C274.27 26.57 282.5 26.61 290.87 28.01C300.89 29.68 309.51 33.09 317.2 38.42C340.98 54.89 343.16 73.7 345.27 91.88C346.13 99.29 347.02 106.94 349.39 114.89C352.42 125.03 357.88 134.38 363.66 144.29C372.5 159.43 381.64 175.09 382.55 194.78C384.3 232.68 359.42 253.73 340.56 266.27C334.51 270.3 328.55 273.47 322.79 276.54C310.81 282.92 300.47 288.43 293.68 299.54C291.65 302.86 290.57 308.55 289.53 314.05C288.28 320.65 286.98 327.48 283.79 333.62C272.25 355.86 247.01 379.29 216.64 381.53C211.96 381.85 207.33 381.64 202.87 380.9Z" stroke="url(#paint0_linear_5_2465)" stroke-miterlimit="10" stroke-dasharray="25 25"/>
<path d="M36.9795 272.6C72.4295 317.2 101.089 301.91 142.609 328.05C166.27 342.94 182.629 373.97 215.909 371.53C240.939 369.69 263.699 350.61 274.919 328.99C280.159 318.89 279.439 303.66 285.149 294.31C296.939 275.02 316.399 270.31 335.029 257.93C356.499 243.65 373.95 225.32 372.56 195.23C371.21 165.88 347.96 145.08 339.799 117.74C331.259 89.12 340.44 66.68 311.5 46.62C288.48 30.67 262.619 40.09 238.689 34.22C177.519 19.23 144.099 -14.75 98.1295 46.92C78.8995 72.72 70.2095 105.37 49.5495 128.74C12.8295 170.31 -10.0505 213.43 36.9795 272.6Z" fill="url(#paint1_linear_5_2465)"/>
<defs>
<linearGradient id="paint0_linear_5_2465" x1="86.8774" y1="34.3445" x2="301.134" y2="334.428" gradientUnits="userSpaceOnUse">
<stop stop-color="#FCEE21"/>
<stop offset="1" stop-color="#00A99D"/>
</linearGradient>
<linearGradient id="paint1_linear_5_2465" x1="94.071" y1="44.4267" x2="296.657" y2="328.165" gradientUnits="userSpaceOnUse">
<stop stop-color="#FCEE21"/>
<stop offset="1" stop-color="#00A99D"/>
</linearGradient>
</defs>
</svg>
